<?xml version="1.0" standalone="no"?>
<!DOCTYPE svg PUBLIC "-//W3C//DTD SVG 20010904//EN"
 "http://www.w3.org/TR/2001/REC-SVG-20010904/DTD/svg10.dtd">
<svg version="1.0" xmlns="http://www.w3.org/2000/svg"
 width="72.000000pt" height="72.000000pt" viewBox="0 0 72.000000 72.000000"
 preserveAspectRatio="xMidYMid meet">
<metadata>
Created by potrace 1.14, written by Peter Selinger 2001-2017
</metadata>
<g transform="translate(0.000000,72.000000) scale(0.100000,-0.100000)"
fill="#000000" stroke="none">
<path d="M273 624 c-40 -41 -73 -79 -73 -84 0 -6 36 -47 80 -92 l80 -83 86 89
85 88 -79 79 c-44 43 -86 79 -94 79 -7 -1 -46 -35 -85 -76z"/>
<path d="M104 452 c-111 -110 -109 -92 -18 -183 43 -43 83 -79 89 -79 6 0 47
36 90 80 l78 81 -49 51 c-131 135 -109 129 -190 50z"/>
<path d="M461 436 l-83 -84 78 -81 c43 -45 83 -81 89 -81 12 0 165 151 165
163 0 6 -158 167 -164 167 -1 0 -39 -38 -85 -84z"/>
<path d="M277 252 c-42 -42 -77 -82 -77 -87 0 -6 36 -46 80 -90 l80 -80 85 85
85 85 -82 82 c-46 46 -85 83 -88 83 -3 0 -40 -35 -83 -78z"/>
</g>
</svg>
